inDegrees=no
num_controls=7
num_derivatives=13
num_iterations=107
num_multipliers=7
num_parameters=0
num_slacks=7
num_states=26
objective=0.431166
objective_accelerations=0.049743
objective_balance=0.006868
objective_effort=0.031242
objective_height=0.342137
objective_ligament=0.001176
solver_duration=1370.895029
status=Solve_Succeeded
success=true
DataType=double
version=3
OpenSimVersion=4.5
endheader
time	/jointset/ground_pelvis/pelvis_tilt/value	/jointset/ground_pelvis/pelvis_tx/value	/jointset/ground_pelvis/pelvis_ty/value	/jointset/hip_l/hip_flexion_l/value	/jointset/hip_l/hip_adduction_l/value	/jointset/hip_l/hip_rotation_l/value	/jointset/back/lumbar_extension/value	/jointset/patellofemoral_l/patellar_flexion_l/value	/jointset/knee_l/knee_flexion_l/value	/jointset/knee_l/knee_adduction_l/value	/jointset/knee_l/knee_rotation_l/value	/jointset/ankle_l/ankle_angle_l/value	/jointset/subtalar_l/subtalar_angle_l/value	/jointset/ground_pelvis/pelvis_tilt/speed	/jointset/ground_pelvis/pelvis_tx/speed	/jointset/ground_pelvis/pelvis_ty/speed	/jointset/hip_l/hip_flexion_l/speed	/jointset/hip_l/hip_adduction_l/speed	/jointset/hip_l/hip_rotation_l/speed	/jointset/back/lumbar_extension/speed	/jointset/patellofemoral_l/patellar_flexion_l/speed	/jointset/knee_l/knee_flexion_l/speed	/jointset/knee_l/knee_adduction_l/speed	/jointset/knee_l/knee_rotation_l/speed	/jointset/ankle_l/ankle_angle_l/speed	/jointset/subtalar_l/subtalar_angle_l/speed	/forceset/tau_hip_flexion_l	/forceset/tau_hip_adduction_l	/forceset/tau_hip_rotation_l	/forceset/tau_knee_flexion_l	/forceset/tau_ankle_angle_l	/forceset/tau_subtalar_angle_l	/forceset/tau_lumbar_extension	lambda_cid13_p0	lambda_cid13_p1	lambda_cid13_p2	lambda_cid13_p3	lambda_cid13_p4	lambda_cid13_p5	lambda_cid14_p0	/jointset/ground_pelvis/pelvis_tilt/accel	/jointset/ground_pelvis/pelvis_tx/accel	/jointset/ground_pelvis/pelvis_ty/accel	/jointset/hip_l/hip_flexion_l/accel	/jointset/hip_l/hip_adduction_l/accel	/jointset/hip_l/hip_rotation_l/accel	/jointset/back/lumbar_extension/accel	/jointset/patellofemoral_l/patellar_flexion_l/accel	/jointset/knee_l/knee_flexion_l/accel	/jointset/knee_l/knee_adduction_l/accel	/jointset/knee_l/knee_rotation_l/accel	/jointset/ankle_l/ankle_angle_l/accel	/jointset/subtalar_l/subtalar_angle_l/accel	gamma_cid13_p0	gamma_cid13_p1	gamma_cid13_p2	gamma_cid13_p3	gamma_cid13_p4	gamma_cid13_p5	gamma_cid14_p0
0	-0.1568450314824083	0.05733831960723767	0.8978886990371182	0.3774924667018715	-0.2607113114724582	-0.2458314058742541	-0.01265067647494873	0.03223648243721494	0.03223648243721463	-0.174532893505639	0.1486329665041522	-0.04231377076293093	-0.01115247851633456	0	0	0	0	0	0	0	0	0	0	0	0	0	0.151555638673196	-0.07189629910659565	-0.05104137722713784	-0.3343585614092761	0.3769601627727982	-0.06000804685789923	-0.08962677463048481	79.00586072659588	7.61789132301904	3.649094688357361	-32.69547337123531	-590.8636827146681	-61.32132630196564	-38.28861207132989	-2.901419055774169	-1.315749844925191	-0.9610388599986697	10.85726544363775	-1.340826901659028	3.38429724248643	-5.422177105894413	10.67064484039523	10.67064484039481	0.03580311848663943	0.3503434274163963	2.942885779163474	-0.6862979535767669	-5.381660188222921e-08	3.952533763339069e-08	1.242308074249993e-07	2.679842074831431e-08	-1.567375745884435e-08	-1.078539831137348e-07	-1.953576688118506e-08
0.01	-0.1569832853487582	0.05727172835588833	0.8978416900674684	0.3780222390779525	-0.2607779497439165	-0.2456627157180602	-0.01292351446528598	0.03275803063741318	0.03275803063740944	-0.1745329184019553	0.1486469523135691	-0.04217274800003105	-0.0111878028778992	-0.0274160053476279	-0.01343096877904814	-0.009380827975689125	0.1055880335790241	-0.0132546312192673	0.03359870821648549	-0.05428723317720358	0.1038455727773876	0.1038455727773692	4.913788902268468e-06	0.002766086204031414	0.02785950662045381	-0.007074189340811059	0.1396140892452604	-0.08142088827694616	-0.04781934610462255	-0.3139253270094186	0.3421743361725021	-0.03936519107316684	-0.08130188662063953	68.5282545473664	0.680775689904468	4.534007182142068	-24.78652454539102	-591.3064598978498	-74.15964426253073	-38.30390975697525	-2.626482505599633	-1.373672811103546	-0.9234630079494438	10.35459902387816	-1.306857245236146	3.326742623814769	-5.389941690132494	10.17190731428378	10.17190731428167	-0.01565422693711193	0.2350646436604699	2.655721353910644	-0.7193969248595565	-7.67858162739713e-08	8.878824426854086e-08	1.559104537005735e-07	4.345996780019221e-08	-1.297668511403045e-07	-6.556756666044939e-08	-2.539550383240766e-08
0.02	-0.1573886575148491	0.05706744693340667	0.8977015011697428	0.3795968971315937	-0.2609749495302029	-0.2451622214771844	-0.01373081384069419	0.03430411332895638	0.03430411332895605	-0.1745325921077607	0.1486876636703852	-0.04176348252084156	-0.01129415263297713	-0.05342365994896731	-0.02753803422646057	-0.01863598561515104	0.2089771355117806	-0.02607230296555689	0.06636081693637783	-0.1068922770143747	0.2049068982697073	0.2049068982696888	7.02381366396196e-05	0.005345109478620478	0.05364854325788164	-0.01420507870267314	0.127672539817321	-0.09094547744729964	-0.04459731498206918	-0.2934920926095619	0.307388509572208	-0.01872233528843737	-0.07297699861079972	58.13702903631571	-6.273697849603797	5.424243675357489	-17.09919107171429	-590.480789786096	-86.88555183717024	-38.34926525932599	-2.619748906516471	-1.450969178598054	-0.9359047927532222	10.41747911438423	-1.253435007063414	3.216977343167799	-5.085739237887932	10.11379538338168	10.1137953833849	0.0478852302538009	0.3129308415279185	2.528791782558291	-0.6976379577868973	-9.975503066571338e-08	1.38051150903691e-07	1.875900999761477e-07	6.01215148520701e-08	-2.438599448217647e-07	-2.328115020716398e-08	-3.125524078363028e-08
0.03	-0.1580481855077435	0.05672083083182738	0.8974692892065291	0.3821934152323689	-0.2612976877279355	-0.2443384917486294	-0.01505448723622273	0.03684746600036107	0.03684746600036274	-0.1745311435102717	0.148753727189663	-0.04110370318354113	-0.01147120012312094	-0.07833014864080326	-0.04168465112867931	-0.0277900524659652	0.3098036981644516	-0.03838635969540095	0.09822572570468709	-0.1574653444834584	0.3033277922539817	0.3033277922539531	0.0002251525058527525	0.007876861288521598	0.0782483829874278	-0.02113553486931159	0.1223746156082339	-0.08467968005701049	-0.04384951100658378	-0.2887446000287288	0.3025450897839089	-0.02181931422146945	-0.06856723067088827	56.46857334747551	-4.790106530256715	5.363120473120138	-16.5809016249213	-590.6766730208834	-83.08394854895481	-38.42316139950795	-2.403339099103483	-1.381415610303371	-0.9027536799776343	9.836813004835774	-1.207076972066466	3.147311627856547	-4.986531860265565	9.640866117059733	9.640866117055953	0.0001871861397276197	0.224663890797266	2.416732302919478	-0.6804590105796752	-1.234398972677173e-07	1.384024337984042e-07	2.258595632682836e-07	8.159059335107029e-08	-3.59150985524595e-07	-2.834217549725267e-08	-3.871200878284668e-08
0.04	-0.1589522264372691	0.05623576702837194	0.8971460173650611	0.3857825125924992	-0.2617409036861913	-0.2432009001355528	-0.01687257957821001	0.04036195355383275	0.04036195355383317	-0.1745279672399108	0.1488453815350516	-0.04019969500199171	-0.01171549408782652	-0.1023262472761044	-0.05522757460169168	-0.03684796126601822	0.4074929873822062	-0.05016785507010811	0.12913319384076	-0.2057760663064221	0.3991338746826343	0.3991338746825705	0.0004157727104506135	0.0104632747014653	0.1024943121076437	-0.02765437361504504	0.1170766913991531	-0.0784138826667248	-0.04310170703110961	-0.2839971074478867	0.2977016699956124	-0.02491629315450417	-0.06415746273097263	54.88055950132539	-3.318884274349072	5.302013299327949	-16.2681749307895	-589.7084571197714	-79.16985346854068	-38.5237234839756	-2.437670895209527	-1.330230492756781	-0.9166731826009948	9.790024427400967	-1.146922736036047	3.025489216720537	-4.633270108663947	9.590833072257338	9.590833072255512	0.05502639733072714	0.3238631621364348	2.458009660692238	-0.6153144736059111	-1.471395195853968e-07	1.377452296056856e-07	2.642648990762249e-07	1.03158796209805e-07	-4.744667261660103e-07	-3.437943669957589e-08	-4.620170525727946e-08
0.05	-0.1600920050779642	0.05561808698011652	0.8967324124246712	0.3903336467771223	-0.2622990392645292	-0.2417588789095796	-0.01916204545678963	0.0448215863361419	0.04482158633614006	-0.1745225174923837	0.1489630786050869	-0.03905522251990266	-0.01202278452115426	-0.1254718465738208	-0.06822583079036076	-0.04587282082344889	0.5022192546163438	-0.0613495561083167	0.1591320949518995	-0.2517367151576643	0.4923210963483322	0.4923210963484425	0.0006871101688122661	0.01305253689886937	0.126300988260226	-0.03372759002733193	0.1104694349132319	-0.07587174200311343	-0.04200653752672957	-0.2777228783668106	0.2889181751593245	-0.02300014840905582	-0.05887600199688111	52.18922307650023	-3.7358718165694	5.432501536299656	-15.04064234912598	-589.0545305007846	-78.96776454457476	-38.6486380007732	-2.229367223931529	-1.272211737033158	-0.8954572692299245	9.236720921716746	-1.08737073250126	2.966208088581654	-4.520403135581084	9.111938199990222	9.111938200017489	0.01517552585702127	0.2228798717352378	2.327107168651734	-0.5919570214219444	-1.651860067258931e-07	1.515597507338937e-07	2.865546511475148e-07	1.217503704796714e-07	-5.589984746767142e-07	-2.96218996047549e-08	-4.977150927684421e-08
